<?xml version="1.0" encoding="utf-8"?>
<!-- Generator: Adobe Illustrator 27.5.0, SVG Export Plug-In . SVG Version: 6.00 Build 0)  -->
<svg version="1.1" xmlns="http://www.w3.org/2000/svg" xmlns:xlink="http://www.w3.org/1999/xlink" x="0px" y="0px"
	 viewBox="0 0 3710 3710" style="enable-background:new 0 0 3710 3710;" xml:space="preserve">
<g id="Background">
	<g>
		<g>
			<rect style="fill:#FFFFFF;" width="3710" height="3710"/>
		</g>
	</g>
</g>
<g id="Illustration">
	<g>
		<linearGradient id="SVGID_1_" gradientUnits="userSpaceOnUse" x1="3305.8398" y1="3550.1467" x2="1319.5161" y2="1406.178">
			<stop  offset="0" style="stop-color:#B37CFF"/>
			<stop  offset="1" style="stop-color:#F895E7"/>
		</linearGradient>
		<path style="opacity:0.3;fill:url(#SVGID_1_);" d="M3029.033,2328.379c-272.935,637.954-993.397,911.971-1557.889,865.25
			c-154.13-12.756-464.241-38.423-706.379-267.405c-465.009-439.745-393.393-1358.934,51.754-1900.102
			c57.326-69.691,454.126-536.615,1072.465-530.365c452.714,4.576,770.47,260.308,809.108,292.168
			c48.81,40.247,156.465,135.886,253.489,287.612C3179.551,1432.041,3199.59,1929.721,3029.033,2328.379z"/>
		<g>
			
				<linearGradient id="SVGID_00000053522530088787697150000015875239498661850519_" gradientUnits="userSpaceOnUse" x1="416.7998" y1="547.3454" x2="1553.4226" y2="2414.0303">
				<stop  offset="0" style="stop-color:#A737D5"/>
				<stop  offset="1" style="stop-color:#EF497A"/>
			</linearGradient>
			<path style="fill:url(#SVGID_00000053522530088787697150000015875239498661850519_);" d="M728.872,469.969
				c-72.664,238.27-438.9,1642.131,816.729,2222.432c0,0,479.022-862.147-781.092-2230.621
				C753.485,449.809,733.619,454.402,728.872,469.969z"/>
			<path style="opacity:0.52;fill:#FFFFFF;" d="M819.85,705.151c4.872,83.472,13.239,166.876,23.241,249.967
				c10.075,83.108,22.158,165.971,36.293,248.476c28.33,164.977,64.471,328.692,111.211,489.361
				c46.893,160.529,104.198,318.335,178.023,468.269c18.328,37.529,38.079,74.337,58.744,110.59
				c20.619,36.288,42.623,71.769,65.94,106.335c46.358,69.318,98.697,134.594,156.945,194.024l0.048,0.049
				c3.034,3.095,2.984,8.063-0.111,11.096c-3.095,3.033-8.063,2.984-11.097-0.11l-0.024-0.027
				c-58.785-60.514-111.395-126.772-157.862-196.928c-23.374-34.99-45.397-70.864-66.004-107.512
				c-20.655-36.617-40.371-73.763-58.64-111.602c-73.591-151.178-130.382-309.859-176.695-471.083
				c-46.154-161.362-81.627-325.583-109.264-490.979c-13.788-82.713-25.516-165.761-35.231-249.041
				c-9.645-83.297-17.643-166.745-22.158-250.58c-0.098-1.833,1.307-3.399,3.14-3.498c1.833-0.099,3.399,1.308,3.497,3.14
				L819.85,705.151z"/>
		</g>
		<g>
			
				<linearGradient id="SVGID_00000059297393896983831340000002223312345598103739_" gradientUnits="userSpaceOnUse" x1="2864.5181" y1="3622.3604" x2="488.8944" y2="2142.6868">
				<stop  offset="0" style="stop-color:#B37CFF"/>
				<stop  offset="1" style="stop-color:#F895E7"/>
			</linearGradient>
			<path style="fill:url(#SVGID_00000059297393896983831340000002223312345598103739_);" d="M509.176,1717.602
				c-16.381,164.233-72.681,1123.867,818.334,1338.45c0,0,199.695-622.221-796.237-1348.383
				C522.561,1701.317,510.247,1706.873,509.176,1717.602z"/>
			<path style="opacity:0.52;fill:#FFFFFF;" d="M600.264,1858.225c14.322,52.236,30.759,104.054,47.958,155.506
				c17.302,51.442,35.763,102.493,55.254,153.135c19.456,50.658,40.182,100.821,61.995,150.488
				c21.898,49.624,44.63,98.891,69.169,147.243c48.755,96.829,102.909,191.012,164.737,279.863
				c7.473,11.285,15.78,21.968,23.652,32.961l11.957,16.383c3.98,5.465,8.278,10.683,12.4,16.038
				c8.38,10.6,16.536,21.385,25.096,31.833l26.11,30.978c35.525,40.659,73.282,79.305,113.777,114.815l0.09,0.08
				c3.718,3.259,4.09,8.914,0.83,12.632c-3.259,3.717-8.915,4.088-12.633,0.829l-0.053-0.045
				c-40.965-36.492-78.967-76.025-114.611-117.481l-26.172-31.555c-8.571-10.635-16.727-21.594-25.11-32.372
				c-4.122-5.442-8.421-10.755-12.396-16.302l-11.94-16.63c-7.857-11.157-16.155-22.011-23.6-33.446
				c-61.641-90.096-115.335-185.25-163.539-282.896c-24.264-48.762-46.689-98.396-68.268-148.363
				c-21.492-50.007-41.88-100.483-60.989-151.431c-19.141-50.936-37.241-102.257-54.177-153.96
				c-16.842-51.749-32.875-103.696-46.875-156.391c-0.539-2.023,0.667-4.101,2.69-4.637c2.014-0.536,4.08,0.654,4.63,2.661
				L600.264,1858.225z"/>
		</g>
		<g>
			
				<linearGradient id="SVGID_00000047744934526263079580000000801642066369549744_" gradientUnits="userSpaceOnUse" x1="998.4694" y1="1831.4977" x2="2978.2212" y2="1831.4977">
				<stop  offset="0" style="stop-color:#2B3582"/>
				<stop  offset="1" style="stop-color:#150E42"/>
			</linearGradient>
			<path style="fill:url(#SVGID_00000047744934526263079580000000801642066369549744_);" d="M2828.988,3204.715l-1689.961-50.617
				c-78.299-2.345-140.557-66.496-140.557-144.83V637.148c0-78.886,63.107-143.277,141.977-144.866l1689.961-34.038
				c81.149-1.634,147.813,63.7,147.813,144.866v2456.775C2978.221,3141.608,2910.675,3207.162,2828.988,3204.715z"/>
			
				<linearGradient id="SVGID_00000127729203959052909570000012332918717680094863_" gradientUnits="userSpaceOnUse" x1="1208.3862" y1="3086.9487" x2="4057.3757" y2="-1469.9448">
				<stop  offset="0" style="stop-color:#53D8FF"/>
				<stop  offset="1" style="stop-color:#3840F7"/>
			</linearGradient>
			<path style="fill:url(#SVGID_00000127729203959052909570000012332918717680094863_);" d="M2686.176,3015.548l-1406.92-43.776
				c-65.185-2.028-117.016-57.509-117.016-125.256V794.998c0-68.224,52.538-123.913,118.198-125.287l1406.92-29.438
				c67.558-1.414,123.057,55.091,123.057,125.287v2124.732C2810.415,2960.97,2754.181,3017.664,2686.176,3015.548z"/>
			<g style="opacity:0.3;">
				<path style="fill:#FFFFFF;" d="M2605.637,2924.641l-1247.76-40.201c-57.811-1.863-103.779-52.813-103.779-115.029V885.4
					c0-62.654,46.594-113.795,104.827-115.057l1247.76-27.034c59.915-1.298,109.136,50.593,109.136,115.057v1951.247
					C2715.821,2874.52,2665.949,2926.584,2605.637,2924.641z"/>
			</g>
			<path style="opacity:0.5;fill:#FFFFFF;" d="M2081.447,3092.542L2081.447,3092.542c-0.477,12.665-9.307,22.792-20.143,23.047
				c-53.495,1.26-204.19,4.851-271.553,6.881c-13.281,0.402-23.155-13.921-20.07-29.071l0.528-2.585
				c2.108-10.335,9.776-17.887,18.828-18.515c45.603-3.159,183.159-11.5,273.819-4.288
				C2073.745,3068.877,2081.927,3079.773,2081.447,3092.542z"/>
			<circle style="opacity:0.5;fill:#FFFFFF;" cx="1976.874" cy="561.821" r="55.619"/>
			<g>
				<g>
					<path style="opacity:0.78;fill:#FFFFFF;" d="M1847.717,1006.012c136.012-0.217,658.158-1.921,790.009-2.356
						c16.631-0.055,29.831,16.187,29.17,35.85l0,0c-0.629,18.717-13.658,33.641-29.489,33.778l-789.652,6.884
						c-15.21,0.133-27.885-13.463-29.24-31.365l-0.343-4.529C1816.623,1023.804,1830.325,1006.039,1847.717,1006.012z"/>
				</g>
				<g>
					<path style="opacity:0.78;fill:#FFFFFF;" d="M1851.446,845.378c136.012-0.217,658.158-1.921,790.009-2.356
						c16.631-0.055,29.831,16.187,29.17,35.85l0,0c-0.629,18.717-13.658,33.641-29.489,33.778l-789.652,6.884
						c-15.21,0.133-27.885-13.463-29.24-31.366l-0.343-4.529C1820.352,863.169,1834.054,845.405,1851.446,845.378z"/>
				</g>
				<g>
					<path style="opacity:0.78;fill:#FFFFFF;" d="M1841.516,1160.524c136.012-0.217,658.158-1.921,790.009-2.356
						c16.631-0.055,29.831,16.187,29.17,35.85l0,0c-0.629,18.717-13.658,33.641-29.489,33.778l-789.652,6.884
						c-15.21,0.133-27.885-13.463-29.24-31.366l-0.343-4.529C1810.422,1178.316,1824.124,1160.551,1841.516,1160.524z"/>
				</g>
				<g>
					<path style="opacity:0.78;fill:#FFFFFF;" d="M1369.847,1380.722c210.06,0.151,1016.445-0.142,1220.071-0.219
						c25.685-0.01,46.533,16.274,46.073,35.943l0,0c-0.439,18.722-20.136,33.617-44.583,33.712l-1219.391,4.751
						c-23.488,0.091-43.451-13.544-46.053-31.457l-0.658-4.532C1322.329,1398.437,1342.985,1380.703,1369.847,1380.722z"/>
				</g>
				<g>
					<path style="opacity:0.78;fill:#FFFFFF;" d="M1360.141,1542.884c163.509-0.726,791.201-4.387,949.704-5.315
						c19.993-0.117,36.112,16.078,35.621,35.746l0,0c-0.468,18.722-15.901,33.696-34.931,33.893l-949.205,9.843
						c-18.284,0.19-33.731-13.361-35.636-31.26l-0.482-4.528C1323.034,1560.795,1339.233,1542.977,1360.141,1542.884z"/>
				</g>
				<g>
					<path style="opacity:0.78;fill:#FFFFFF;" d="M1367.781,1755.207c210.06,0.151,1016.445-0.142,1220.071-0.22
						c25.685-0.01,46.534,16.274,46.073,35.943l0,0c-0.438,18.722-20.136,33.617-44.583,33.712l-1219.391,4.751
						c-23.488,0.091-43.451-13.544-46.053-31.457l-0.658-4.532C1320.263,1772.922,1340.92,1755.188,1367.781,1755.207z"/>
				</g>
				<g>
					<path style="opacity:0.78;fill:#FFFFFF;" d="M1349.505,1920.069c164.282,0.306,794.943,0.609,954.196,0.682
						c20.087,0.009,36.189,16.305,35.582,35.97l0,0c-0.578,18.718-16.169,33.596-35.29,33.672l-953.721,3.849
						c-18.371,0.074-33.812-13.573-35.623-31.485l-0.458-4.531C1312.12,1937.745,1328.498,1920.029,1349.505,1920.069z"/>
				</g>
				<g>
					<path style="opacity:0.78;fill:#FFFFFF;" d="M1357.424,2137.333c210.06,0.151,1016.445-0.142,1220.071-0.219
						c25.685-0.01,46.533,16.274,46.073,35.943l0,0c-0.439,18.722-20.136,33.616-44.583,33.712l-1219.391,4.751
						c-23.488,0.092-43.451-13.544-46.053-31.457l-0.658-4.531C1309.906,2155.048,1330.563,2137.313,1357.424,2137.333z"/>
				</g>
				<g>
					<path style="opacity:0.78;fill:#FFFFFF;" d="M1344.738,2300.245c164.281,0.307,794.943,0.609,954.196,0.682
						c20.088,0.009,36.189,16.305,35.582,35.97l0,0c-0.578,18.719-16.169,33.595-35.29,33.672l-953.721,3.85
						c-18.371,0.074-33.813-13.573-35.623-31.485l-0.458-4.531C1307.354,2317.921,1323.731,2300.206,1344.738,2300.245z"/>
				</g>
				<path style="opacity:0.78;fill:#FFFFFF;" d="M1369.847,2515.02c210.06,0.151,1016.445-0.142,1220.071-0.22
					c25.685-0.01,46.533,16.274,46.073,35.943l0,0c-0.439,18.722-20.136,33.616-44.583,33.712l-1219.391,4.751
					c-23.488,0.092-43.451-13.544-46.053-31.457l-0.658-4.531C1322.329,2532.735,1342.985,2515.001,1369.847,2515.02z"/>
				<path style="opacity:0.78;fill:#FFFFFF;" d="M1357.963,2695.578c162.207,0.009,784.902-0.831,942.144-1.046
					c19.834-0.027,35.747,16.24,35.167,35.905l0,0c-0.552,18.719-15.933,33.624-34.812,33.736l-941.67,5.577
					c-18.139,0.107-33.399-13.512-35.204-31.42l-0.457-4.53C1321.067,2713.323,1337.221,2695.577,1357.963,2695.578z"/>
			</g>
			<g style="opacity:0.78;">
				<path style="fill:#FFFFFF;" d="M1468.967,1102.249l-44.453,134.627h-57.154l145.424-428.014h66.68l146.057,428.014h-59.058
					l-45.724-134.627H1468.967z M1609.309,1059.066l-41.913-123.197c-9.526-27.94-15.875-53.343-22.227-78.109h-1.27
					c-6.349,25.401-13.334,51.437-21.59,77.475l-41.913,123.831H1609.309z"/>
			</g>
		</g>
		<g>
			<g>
				
					<linearGradient id="SVGID_00000043441482472469962080000000043831317289822342_" gradientUnits="userSpaceOnUse" x1="2672.7012" y1="1186.4376" x2="2918.7981" y2="1728.9703">
					<stop  offset="0" style="stop-color:#CE1567"/>
					<stop  offset="1" style="stop-color:#7A1DBC"/>
				</linearGradient>
				<path style="fill:url(#SVGID_00000043441482472469962080000000043831317289822342_);" d="M2765.323,1339.273
					c0,0,42.838,20.837,50.714,44.772c6.32,19.205,53.687,21.681,58.366,59.453c2.416,19.502,16.847,35.12,36.271,38.097
					c48.377,7.415,122.931,32.536,134.86,116.53c9.105,64.111-23.578,88.421-57.878,96.836
					c-25.192,6.18-41.934,30.684-36.838,56.118c4.888,24.395-2.401,52.596-44.664,74.897
					c-94.707,49.974-189.288-118.392-189.288-118.392l-19.383-293.977L2765.323,1339.273z"/>
				
					<linearGradient id="SVGID_00000091005643051973313760000001333342359166418363_" gradientUnits="userSpaceOnUse" x1="-1577.458" y1="1219.3591" x2="-1342.7133" y2="1753.4565" gradientTransform="matrix(0.9776 -0.2106 0.2106 0.9776 3676.5256 -113.5247)">
					<stop  offset="0" style="stop-color:#F9B776"/>
					<stop  offset="1" style="stop-color:#F47960"/>
				</linearGradient>
				<path style="fill:url(#SVGID_00000091005643051973313760000001333342359166418363_);" d="M2249.993,1269.58
					c0,0,189.096,299.097,413.954,356.868c0,0-43.814,124.791-77.632,139.073c0,0-276.638-230.823-347.73-453.441L2249.993,1269.58z
					"/>
				
					<linearGradient id="SVGID_00000148655106040541601220000016946104320072698007_" gradientUnits="userSpaceOnUse" x1="-553.9837" y1="1045.1807" x2="-672.6193" y2="2603.6284" gradientTransform="matrix(1 0 0 1 3926.9458 0)">
					<stop  offset="0" style="stop-color:#CE1567"/>
					<stop  offset="1" style="stop-color:#7A1DBC"/>
				</linearGradient>
				<path style="fill:url(#SVGID_00000148655106040541601220000016946104320072698007_);" d="M3154.61,3182.605l6.129,50.382
					c1.163,9.558,8.688,17.115,18.254,18.208c16.151,1.845,42.07,3.736,67.428,1.055c11.131-1.177,18.357-12.448,14.966-23.115
					c-6.182-19.449-17.491-48.646-33.797-65.827h-55.889C3161.368,3163.309,3153.362,3172.348,3154.61,3182.605z"/>
				
					<linearGradient id="SVGID_00000075143130154584320770000015266616329083086479_" gradientUnits="userSpaceOnUse" x1="-1227.7534" y1="3633.3438" x2="-1072.6968" y2="1821.1184" gradientTransform="matrix(1 0 0 1 3926.9458 0)">
					<stop  offset="0" style="stop-color:#F9B776"/>
					<stop  offset="1" style="stop-color:#F47960"/>
				</linearGradient>
				<path style="fill:url(#SVGID_00000075143130154584320770000015266616329083086479_);" d="M2716.866,2592.413l-9.433,55.491
					c0,0,31.59,319.981,37.209,447.973c0.881,20.067-4.311,39.897-14.843,57l-54.93,89.201l139.603-82.378l2.779-17.036
					l-22.853-31.422l29.934-358.458c1.759-21.058-2.587-42.177-12.516-60.83l-28.876-54.247L2716.866,2592.413z"/>
				
					<linearGradient id="SVGID_00000139295092533095227100000003653949726090673843_" gradientUnits="userSpaceOnUse" x1="-1018.7739" y1="1009.7897" x2="-1137.4089" y2="2568.2305" gradientTransform="matrix(1 0 0 1 3926.9458 0)">
					<stop  offset="0" style="stop-color:#CE1567"/>
					<stop  offset="1" style="stop-color:#7A1DBC"/>
				</linearGradient>
				<path style="fill:url(#SVGID_00000139295092533095227100000003653949726090673843_);" d="M2665.676,3255h44.55
					c8.339,0,16.203-3.829,21.289-10.437c13.888-18.046,42.663-53.254,56.422-54.173c18.522-1.237,16.153,64.61,16.153,64.61h10.383
					l13.151-81.823c3.309-20.587-6.93-40.982-25.416-50.628c0,0-4.234,31.312-27.192,45.163
					c-22.958,13.85-93.424,63.451-93.424,63.451s-8.631-1.231-18.106,0.482C2649.428,3234.184,2651.392,3255,2665.676,3255z"/>
				
					<linearGradient id="SVGID_00000183218754078210151630000001784238483113306791_" gradientUnits="userSpaceOnUse" x1="-915.8474" y1="3660.3088" x2="-760.75" y2="1847.6069" gradientTransform="matrix(1 0 0 1 3926.9458 0)">
					<stop  offset="0" style="stop-color:#F9B776"/>
					<stop  offset="1" style="stop-color:#F47960"/>
				</linearGradient>
				<path style="fill:url(#SVGID_00000183218754078210151630000001784238483113306791_);" d="M2908.076,2618.768
					c0,0,185.064,351.049,214.482,431.198c29.418,80.15,39.724,147.013,40.118,153.345c0.616,9.894,12.922,19.383,46.842,19.383
					c17.506,0,26.079-7.017,30.277-13.809c3.582-5.795,3.767-13.046,0.749-19.153c-10.705-21.665-44.677-90.9-57.259-122.302
					c-15.022-37.492-47.335-207.402-65.057-266.478c-17.721-59.075-37.753-123.157-114.926-182.185
					C3003.302,2618.768,2950.326,2566.881,2908.076,2618.768z"/>
				
					<linearGradient id="SVGID_00000042007352986689838980000016994857183778587580_" gradientUnits="userSpaceOnUse" x1="-1223.923" y1="1805.8263" x2="-1146.3912" y2="2525.1541" gradientTransform="matrix(1 0 0 1 3926.9458 0)">
					<stop  offset="0" style="stop-color:#FDF53F"/>
					<stop  offset="1" style="stop-color:#D93C65"/>
				</linearGradient>
				<path style="fill:url(#SVGID_00000042007352986689838980000016994857183778587580_);" d="M2791.168,2043.557
					c-47.738-202.286,73.197-316.696,73.197-316.696c-76.307-73.247-215.339-106.577-215.339-106.577
					s-132.667,96.991-116.928,172.908c9.224,44.495,93.252,266.518,93.252,266.518S2703.048,2096.482,2791.168,2043.557z"/>
				
					<linearGradient id="SVGID_00000075863929635838607790000011534724876815732639_" gradientUnits="userSpaceOnUse" x1="-796.8397" y1="1841.1403" x2="-1184.5024" y2="2461.4001" gradientTransform="matrix(1 0 0 1 3926.9458 0)">
					<stop  offset="0" style="stop-color:#CE1567"/>
					<stop  offset="1" style="stop-color:#7A1DBC"/>
				</linearGradient>
				<path style="fill:url(#SVGID_00000075863929635838607790000011534724876815732639_);" d="M2897.01,2143.703
					c-19.427-58.528-105.842-100.146-105.842-100.146c-88.119,52.925-165.819,16.153-165.819,16.153s-17.425,66.604-5.398,128.501
					c12.026,61.897,87.482,459.692,87.482,459.692c118.892,24.09,301.746-24.237,301.746-24.237
					C2933.449,2489.213,2916.438,2202.231,2897.01,2143.703z"/>
				
					<linearGradient id="SVGID_00000124884472858831208810000000012742773511352206_" gradientUnits="userSpaceOnUse" x1="-1244.7579" y1="1847.0321" x2="-1215.631" y2="1633.947" gradientTransform="matrix(1 0 0 1 3926.9458 0)">
					<stop  offset="0" style="stop-color:#F9B776"/>
					<stop  offset="1" style="stop-color:#F47960"/>
				</linearGradient>
				<path style="fill:url(#SVGID_00000124884472858831208810000000012742773511352206_);" d="M2735.756,1486.606l38.812,174.336
					c3.716,15.356-10.283,12.843-25.808,9.916c-25.425-4.793-58.194-14.666-69.148-34.449c-1.115-2.014-1.672-4.29-1.986-6.57
					l-16.674-120.889c-1.323-9.591,3.862-18.9,12.713-22.824l32.177-14.267C2718.229,1466.366,2732.568,1473.434,2735.756,1486.606z
					"/>
				
					<linearGradient id="SVGID_00000093142005856496343860000006065733191546725511_" gradientUnits="userSpaceOnUse" x1="-523.5173" y1="2049.5281" x2="134.0991" y2="1774.4222" gradientTransform="matrix(-1 0 0 1 2761.5125 0)">
					<stop  offset="0" style="stop-color:#F9B776"/>
					<stop  offset="1" style="stop-color:#F47960"/>
				</linearGradient>
				<path style="fill:url(#SVGID_00000093142005856496343860000006065733191546725511_);" d="M2864.365,1726.861
					c0,0,374.621,370.845-168.673,222.812c0,0-6.196-46.877,1.89-46.07c176.179,17.577,249.868,57.912,106.653-80.96
					c-5.063-4.91-3.499-23.443-0.242-29.699C2813.909,1773.895,2836.588,1736.064,2864.365,1726.861z"/>
				<g>
					
						<linearGradient id="SVGID_00000135662403736958442730000018431618414284008607_" gradientUnits="userSpaceOnUse" x1="-1375.5555" y1="1450.0825" x2="-1121.4113" y2="997.7911" gradientTransform="matrix(0.9809 -0.1943 0.1943 0.9809 3697.8557 -99.2406)">
						<stop  offset="0" style="stop-color:#F9B776"/>
						<stop  offset="1" style="stop-color:#F47960"/>
					</linearGradient>
					<path style="fill:url(#SVGID_00000135662403736958442730000018431618414284008607_);" d="M2661.415,1327.681
						c0,0-41.32,27.97-59.075,99.2c-17.755,71.23,11.099,96.78,40.676,95.214c29.577-1.566,72.461-10.712,109.618-61.813
						S2715.562,1293.503,2661.415,1327.681z"/>
					
						<linearGradient id="SVGID_00000162317380420442581160000001956337776746302380_" gradientUnits="userSpaceOnUse" x1="2639.1829" y1="1201.642" x2="2885.2808" y2="1744.1769">
						<stop  offset="0" style="stop-color:#CE1567"/>
						<stop  offset="1" style="stop-color:#7A1DBC"/>
					</linearGradient>
					<path style="fill:url(#SVGID_00000162317380420442581160000001956337776746302380_);" d="M2715.164,1431.552
						c0,0,15.14-102.066-69.601-86.454l-17.135,17.839c0,0-41.478-46.712,4.424-82.021s109.598-26.268,144.839,38.015
						c35.24,64.283,48.03,109.453,18.493,149.397c-29.538,39.945-51.756,5.686-51.756,5.686s13.546-34.572,2.306-49.407
						s-25.742,8.627-25.742,8.627L2715.164,1431.552z"/>
					
						<linearGradient id="SVGID_00000005989754506932877960000008623554687572600511_" gradientUnits="userSpaceOnUse" x1="-1321.4587" y1="1480.4834" x2="-1067.3147" y2="1028.1924" gradientTransform="matrix(0.9809 -0.1943 0.1943 0.9809 3697.8557 -99.2406)">
						<stop  offset="0" style="stop-color:#F9B776"/>
						<stop  offset="1" style="stop-color:#F47960"/>
					</linearGradient>
					<path style="fill:url(#SVGID_00000005989754506932877960000008623554687572600511_);" d="M2726.745,1440.293
						c0,0,7.475-52.512,34.294-37.5c26.819,15.012-9.666,49.054-24.294,60.636L2726.745,1440.293z"/>
				</g>
				<g>
					
						<linearGradient id="SVGID_00000159438290960353475880000004816287202901835151_" gradientUnits="userSpaceOnUse" x1="-1623.848" y1="1239.7488" x2="-1389.1033" y2="1773.8462" gradientTransform="matrix(0.9776 -0.2106 0.2106 0.9776 3676.5256 -113.5247)">
						<stop  offset="0" style="stop-color:#F9B776"/>
						<stop  offset="1" style="stop-color:#F47960"/>
					</linearGradient>
					<path style="fill:url(#SVGID_00000159438290960353475880000004816287202901835151_);" d="M2251.292,1331.154
						c-0.573,6.17,22.371,10.434,29.672-15.869c-2.007-11.419-5.572-61.426-14.328-69.194
						c-46.633-41.377-129.788-87.923-129.788-87.923c-9.3,14.199,2.897,23.551,2.897,23.551l41.509,28.013
						c-4.33,14.342-10.649,27.021-11.364,43.394c-0.542,12.399,4.039,24.538,12.269,33.944c8.26,9.439,19.382,21.626,29.406,30.879
						C2230.543,1335.462,2251.292,1331.154,2251.292,1331.154z"/>
					
						<linearGradient id="SVGID_00000034777429382571439520000004701819575607944638_" gradientUnits="userSpaceOnUse" x1="505.7508" y1="1268.0581" x2="568.9611" y2="1268.0581" gradientTransform="matrix(-1 0 0 1 2761.5125 0)">
						<stop  offset="0" style="stop-color:#F9B776"/>
						<stop  offset="1" style="stop-color:#F47960"/>
					</linearGradient>
					<path style="fill:url(#SVGID_00000034777429382571439520000004701819575607944638_);" d="M2228.745,1310.769l6.344-2.61
						c-0.843-2.053-20.763-50.458-30.397-60.526c-3.661-3.82-5.429-7.092-5.265-9.729c0.081-1.427,0.788-2.837,2.13-4.273
						l33.587,17.963l14.836,23.228l5.782-3.698l-15.797-24.742l-39.342-21.035l-1.776,1.446c-3.979,3.253-6.036,6.747-6.271,10.69
						c-0.29,4.695,2.048,9.566,7.151,14.899C2206.985,1259.963,2223.135,1297.098,2228.745,1310.769z"/>
				</g>
			</g>
			<g>
				
					<linearGradient id="SVGID_00000006684760063545343450000013217023484442848659_" gradientUnits="userSpaceOnUse" x1="202.3436" y1="1662.0375" x2="414.5744" y2="2546.3347" gradientTransform="matrix(-1 0 0 1 2761.5125 0)">
					<stop  offset="0" style="stop-color:#2B3582"/>
					<stop  offset="1" style="stop-color:#150E42"/>
				</linearGradient>
				<path style="fill:url(#SVGID_00000006684760063545343450000013217023484442848659_);" d="M2714.117,2014.018l-85.421-298.309
					c-2.101-7.336-8.413-12.679-15.994-13.546c-20.427-2.335-63.568-7.06-112.558-11.204c-59.496-5.032-127.618-9.207-174.151-7.198
					c-13.606,0.587-22.047,15.063-15.981,27.256c33.423,67.175,126.963,252.049,177.875,321.169
					c3.607,4.897,9.322,7.763,15.404,7.706l192.847-1.794C2708.615,2037.982,2717.552,2026.012,2714.117,2014.018z"/>
				
					<linearGradient id="SVGID_00000049943237924688555890000005025050516747183263_" gradientUnits="userSpaceOnUse" x1="57.0752" y1="1895.9929" x2="177.8614" y2="1895.9929" gradientTransform="matrix(-1 0 0 1 2761.5125 0)">
					<stop  offset="0" style="stop-color:#F9B776"/>
					<stop  offset="1" style="stop-color:#F47960"/>
				</linearGradient>
				<path style="fill:url(#SVGID_00000049943237924688555890000005025050516747183263_);" d="M2695.692,1949.673
					c0,0,12.629-51.931,7.535-70.356c-5.094-18.424-14.965-42.113-47.865-36.849c-32.901,5.264-71.71,19.124-71.71,19.124
					s1.961,23.999,26.965,16.256l-15.506,11.998c0,0,2.216,19.216,23.337,8.95l-14.422,15.912c0,0,9.071,15.781,24.61,5.659
					C2644.175,1910.244,2651.624,1955.926,2695.692,1949.673z"/>
			</g>
		</g>
	</g>
</g>
</svg>
